<svg width="57" height="30" viewBox="0 0 57 30" fill="none" xmlns="http://www.w3.org/2000/svg">
<path d="M14.662 23L19.368 5.84H24.802L25.998 15.642L30.834 5.84H35.384L35.852 18.684C35.9213 20.3827 36.372 21.492 37.204 22.012C37.0133 22.3587 36.6407 22.6967 36.086 23.026C35.5313 23.3553 34.8813 23.52 34.136 23.52C33.408 23.52 32.8273 23.416 32.394 23.208C31.9607 23 31.6227 22.7227 31.38 22.376C30.9467 21.752 30.73 20.842 30.73 19.646V11.612L25.608 23H22.384L20.564 11.326L17.652 23H14.662Z" fill="#007BFF"/>
<path d="M38.033 23L41.335 5.84H47.055L43.701 23H38.033ZM47.3513 23L50.6533 5.84H56.3733L53.0193 23H47.3513Z" fill="white"/>
<path d="M7 7L8.5716 12.5279H13.6574L9.5429 15.9443L11.1145 21.4721L7 18.0557L2.8855 21.4721L4.4571 15.9443L0.342604 12.5279H5.4284L7 7Z" fill="white"/>
</svg>
